<svg width="1200" height="675" viewBox="0 0 1200 675" xmlns="http://www.w3.org/2000/svg" role="img" aria-label="Dashboard thumbnail">
  <defs>
    <linearGradient id="bg" x1="0" y1="0" x2="1" y2="1">
      <stop offset="0" stop-color="#0B1020"/>
      <stop offset="1" stop-color="#0F172A"/>
    </linearGradient>
    <linearGradient id="p" x1="0" y1="1" x2="1" y2="0">
      <stop offset="0" stop-color="#6366F1"/>
      <stop offset="1" stop-color="#0EA5E9"/>
    </linearGradient>
    <linearGradient id="q" x1="0" y1="0" x2="1" y2="0">
      <stop offset="0" stop-color="#EC4899"/>
      <stop offset="1" stop-color="#F59E0B"/>
    </linearGradient>
  </defs>
  <rect width="1200" height="675" rx="48" fill="url(#bg)"/>
  <rect x="72" y="80" width="1056" height="515" rx="40" fill="rgba(255,255,255,0.06)"/>
  <rect x="110" y="128" width="280" height="54" rx="20" fill="rgba(255,255,255,0.08)"/>
  <rect x="410" y="128" width="240" height="54" rx="20" fill="rgba(255,255,255,0.06)"/>
  <rect x="670" y="128" width="420" height="54" rx="20" fill="rgba(255,255,255,0.05)"/>
  <rect x="110" y="210" width="640" height="190" rx="32" fill="rgba(255,255,255,0.06)"/>
  <rect x="774" y="210" width="316" height="190" rx="32" fill="rgba(255,255,255,0.06)"/>
  <path d="M150 350c90-110 180 60 270-30 90-90 160 30 260-70" fill="none" stroke="url(#p)" stroke-width="14" stroke-linecap="round"/>
  <path d="M804 344c40-70 80 40 120-10 40-50 70 20 110-40" fill="none" stroke="url(#q)" stroke-width="14" stroke-linecap="round"/>
  <rect x="110" y="424" width="980" height="146" rx="32" fill="rgba(255,255,255,0.06)"/>
  <rect x="150" y="464" width="420" height="18" rx="9" fill="rgba(255,255,255,0.10)"/>
  <rect x="150" y="496" width="520" height="18" rx="9" fill="rgba(255,255,255,0.08)"/>
  <rect x="150" y="528" width="360" height="18" rx="9" fill="rgba(255,255,255,0.06)"/>
</svg>

