<svg width="1200" height="675" viewBox="0 0 1200 675" xmlns="http://www.w3.org/2000/svg" role="img" aria-label="Portfolio thumbnail">
  <defs>
    <linearGradient id="g1" x1="0" y1="0" x2="1" y2="1">
      <stop offset="0" stop-color="#0EA5E9"/>
      <stop offset="0.5" stop-color="#6366F1"/>
      <stop offset="1" stop-color="#EC4899"/>
    </linearGradient>
    <linearGradient id="g2" x1="0" y1="1" x2="1" y2="0">
      <stop offset="0" stop-color="#10B981" stop-opacity="0.25"/>
      <stop offset="1" stop-color="#F59E0B" stop-opacity="0.1"/>
    </linearGradient>
  </defs>
  <rect width="1200" height="675" rx="48" fill="#0B1020"/>
  <rect x="48" y="56" width="1104" height="72" rx="24" fill="rgba(255,255,255,0.06)"/>
  <rect x="72" y="80" width="220" height="24" rx="12" fill="rgba(255,255,255,0.18)"/>
  <rect x="48" y="152" width="1104" height="467" rx="36" fill="url(#g2)"/>
  <rect x="80" y="196" width="520" height="56" rx="18" fill="rgba(255,255,255,0.10)"/>
  <rect x="80" y="272" width="720" height="20" rx="10" fill="rgba(255,255,255,0.10)"/>
  <rect x="80" y="308" width="640" height="20" rx="10" fill="rgba(255,255,255,0.08)"/>
  <rect x="80" y="352" width="260" height="44" rx="22" fill="url(#g1)"/>
  <rect x="80" y="420" width="1040" height="156" rx="28" fill="rgba(255,255,255,0.06)"/>
  <circle cx="1060" cy="96" r="14" fill="rgba(255,255,255,0.18)"/>
  <circle cx="1100" cy="96" r="14" fill="rgba(255,255,255,0.12)"/>
  <circle cx="1140" cy="96" r="14" fill="rgba(255,255,255,0.08)"/>
</svg>

