<svg width="1200" height="675" viewBox="0 0 1200 675" xmlns="http://www.w3.org/2000/svg" role="img" aria-label="Task tracker thumbnail">
  <defs>
    <linearGradient id="bg" x1="0" y1="0" x2="1" y2="1">
      <stop offset="0" stop-color="#111827"/>
      <stop offset="1" stop-color="#0B1020"/>
    </linearGradient>
    <linearGradient id="accent" x1="0" y1="0" x2="1" y2="0">
      <stop offset="0" stop-color="#10B981"/>
      <stop offset="1" stop-color="#22C55E"/>
    </linearGradient>
  </defs>
  <rect width="1200" height="675" rx="48" fill="url(#bg)"/>
  <rect x="72" y="80" width="1056" height="515" rx="40" fill="rgba(255,255,255,0.06)"/>
  <rect x="110" y="140" width="420" height="42" rx="21" fill="rgba(255,255,255,0.10)"/>
  <rect x="110" y="214" width="980" height="64" rx="24" fill="rgba(255,255,255,0.07)"/>
  <rect x="148" y="236" width="26" height="26" rx="7" fill="url(#accent)"/>
  <rect x="190" y="238" width="380" height="22" rx="11" fill="rgba(255,255,255,0.10)"/>
  <rect x="110" y="298" width="980" height="64" rx="24" fill="rgba(255,255,255,0.07)"/>
  <rect x="148" y="320" width="26" height="26" rx="7" fill="rgba(255,255,255,0.14)"/>
  <rect x="190" y="322" width="460" height="22" rx="11" fill="rgba(255,255,255,0.10)"/>
  <rect x="110" y="382" width="980" height="64" rx="24" fill="rgba(255,255,255,0.07)"/>
  <rect x="148" y="404" width="26" height="26" rx="7" fill="rgba(255,255,255,0.14)"/>
  <rect x="190" y="406" width="340" height="22" rx="11" fill="rgba(255,255,255,0.10)"/>
  <rect x="110" y="488" width="260" height="46" rx="23" fill="url(#accent)"/>
  <rect x="396" y="500" width="220" height="24" rx="12" fill="rgba(255,255,255,0.10)"/>
</svg>

